<?xml version="1.0" encoding="UTF-8"?><svg id="Grå" xmlns="http://www.w3.org/2000/svg" viewBox="0 0 598.41 96.95"><defs><style>.cls-1{fill:#1d1d1b;}.cls-2{fill:#56b257;}</style></defs><path class="cls-2" d="M162.63,44.76v16.29h21.44v3.79h-21.44v17.59h-4.38v-41.46h28.43v3.79h-24.05Z"/><path class="cls-2" d="M194.85,38.48h4.21v43.95h-4.21v-43.95Z"/><path class="cls-2" d="M237.91,68.16h-26.06c.47,6.52,5.45,10.84,12.26,10.84,3.79,0,7.17-1.36,9.54-4.09l2.37,2.72c-2.79,3.32-7.11,5.09-12.03,5.09-9.71,0-16.35-6.63-16.35-15.88s6.46-15.82,15.22-15.82,15.1,6.46,15.1,15.82c0,.36-.06.83-.06,1.3ZM211.85,65.02h22.09c-.53-6.1-4.98-10.37-11.08-10.37s-10.48,4.26-11.02,10.37Z"/><path class="cls-2" d="M273.68,68.16h-26.06c.47,6.52,5.45,10.84,12.26,10.84,3.79,0,7.17-1.36,9.54-4.09l2.37,2.72c-2.78,3.32-7.11,5.09-12.03,5.09-9.71,0-16.35-6.63-16.35-15.88s6.46-15.82,15.22-15.82,15.11,6.46,15.11,15.82c0,.36-.06.83-.06,1.3ZM247.62,65.02h22.1c-.53-6.1-4.98-10.37-11.08-10.37s-10.48,4.26-11.02,10.37Z"/><path class="cls-2" d="M298.74,80.54c-1.66,1.48-4.15,2.19-6.58,2.19-5.86,0-9.12-3.32-9.12-9.06v-18.84h-5.57v-3.55h5.57v-6.81h4.21v6.81h9.48v3.55h-9.48v18.6c0,3.67,1.89,5.69,5.39,5.69,1.72,0,3.44-.53,4.62-1.6l1.48,3.02Z"/><path class="cls-2" d="M303.59,61.7c0-12.08,9.24-21.09,21.8-21.09s21.74,8.94,21.74,21.09-9.3,21.09-21.74,21.09-21.8-9-21.8-21.09ZM342.75,61.7c0-9.89-7.4-17.18-17.36-17.18s-17.47,7.29-17.47,17.18,7.46,17.18,17.47,17.18,17.36-7.29,17.36-17.18Z"/><path class="cls-2" d="M387.64,66.85c0,9.48-6.63,15.88-15.52,15.88-4.97,0-9.24-2.13-11.85-6.16v17.36h-4.21v-42.65h4.03v6.16c2.55-4.15,6.87-6.4,12.02-6.4,8.88,0,15.52,6.4,15.52,15.82ZM383.44,66.85c0-7.23-5.04-12.14-11.61-12.14s-11.61,4.92-11.61,12.14,4.98,12.14,11.61,12.14,11.61-4.86,11.61-12.14Z"/><path class="cls-2" d="M412.64,80.54c-1.66,1.48-4.15,2.19-6.58,2.19-5.86,0-9.12-3.32-9.12-9.06v-18.84h-5.57v-3.55h5.57v-6.81h4.21v6.81h9.48v3.55h-9.48v18.6c0,3.67,1.89,5.69,5.39,5.69,1.72,0,3.44-.53,4.62-1.6l1.48,3.02Z"/><path class="cls-2" d="M419.33,41.44c0-1.6,1.36-2.96,3.08-2.96s3.08,1.3,3.08,2.9c0,1.72-1.3,3.08-3.08,3.08s-3.08-1.36-3.08-3.02ZM420.27,51.27h4.21v31.16h-4.21v-31.16Z"/><path class="cls-2" d="M487.62,64.37v18.07h-4.21v-17.65c0-6.57-3.32-9.95-8.95-9.95-6.4,0-10.43,4.15-10.43,11.25v16.35h-4.21v-17.65c0-6.57-3.32-9.95-9-9.95-6.34,0-10.42,4.15-10.42,11.25v16.35h-4.21v-31.16h4.03v5.69c2.19-3.73,6.22-5.92,11.43-5.92s9.18,2.19,11.08,6.58c2.25-4.03,6.69-6.58,12.32-6.58,7.58,0,12.56,4.38,12.56,13.33Z"/><path class="cls-2" d="M498.1,41.44c0-1.6,1.36-2.96,3.08-2.96s3.08,1.3,3.08,2.9c0,1.72-1.3,3.08-3.08,3.08s-3.08-1.36-3.08-3.02ZM499.05,51.27h4.21v31.16h-4.21v-31.16Z"/><path class="cls-2" d="M510.66,78.88l1.9-3.32c2.49,1.96,6.69,3.5,11.08,3.5,5.92,0,8.35-2.01,8.35-5.09,0-8.12-20.2-1.72-20.2-14.04,0-5.09,4.38-8.89,12.32-8.89,4.03,0,8.41,1.13,11.02,2.9l-1.84,3.38c-2.72-1.9-5.98-2.67-9.18-2.67-5.63,0-8.12,2.19-8.12,5.15,0,8.41,20.2,2.07,20.2,14.04,0,5.39-4.74,8.88-12.85,8.88-5.15,0-10.13-1.66-12.68-3.85Z"/><path class="cls-2" d="M571.08,68.16h-26.06c.47,6.52,5.45,10.84,12.26,10.84,3.79,0,7.17-1.36,9.54-4.09l2.37,2.72c-2.79,3.32-7.11,5.09-12.03,5.09-9.71,0-16.35-6.63-16.35-15.88s6.46-15.82,15.22-15.82,15.1,6.46,15.1,15.82c0,.36-.06.83-.06,1.3ZM545.01,65.02h22.09c-.53-6.1-4.98-10.37-11.08-10.37s-10.48,4.26-11.02,10.37Z"/><path class="cls-2" d="M595.42,51.04v4.09c-.36,0-.71-.06-1.01-.06-6.52,0-10.48,4.15-10.48,11.49v15.88h-4.21v-31.16h4.03v6.1c1.95-4.15,5.92-6.34,11.67-6.34Z"/><path class="cls-1" d="M134.32,25.31l5.25-11.15c-6.97-4.61-16.51-7.72-26.26-7.72-16.29,0-27.33,8.04-27.33,20.9,0,26.69,40.51,17.36,40.51,34.08,0,5.79-5.25,9.11-14.04,9.11-8.03,0-17.68-3.86-25.4-10.93l-5.47,10.93c7.72,7.07,18.86,11.89,30.65,11.89,16.51,0,28.3-8.25,28.3-21.64.1-27.01-40.41-18.22-40.41-34.62,0-5.04,4.82-7.83,12.22-7.83,5.68,0,13.83,2.04,21.97,6.97"/><path class="cls-1" d="M80.52,44.49c0-15.36-8.94-28.12-22.25-34.12l-4.97,10.66c8.46,4.38,14.25,13.11,14.25,23.46,0,14.9-12,26.69-26.69,26.69s-27.01-11.79-27.01-26.69c0-10.31,5.86-19.03,14.37-23.42l-4.99-10.71C9.93,16.34,1,29.05,1,44.49c0,21.44,17.36,38.05,39.76,38.05s39.76-16.61,39.76-38.05"/><rect class="cls-1" x="34.95" y="1.47" width="11.56" height="31.56"/><path class="cls-1" d="M162.99,18.38l-9.15,9.38v5.18h22.02v-6.26h-12.33l5.63-5.85c2.21-2.29,3.72-4.18,4.53-5.65.82-1.47,1.23-3.02,1.23-4.62,0-2.95-1.02-5.28-3.06-6.99-2.04-1.71-4.41-2.57-7.1-2.57s-4.91.58-6.65,1.74c-1.74,1.16-3.35,2.87-4.8,5.14l5.58,3.31c1.76-2.8,3.62-4.2,5.58-4.2,1.07,0,1.95.35,2.63,1.05.69.7,1.03,1.57,1.03,2.61s-.39,2.12-1.18,3.24c-.79,1.12-2.11,2.61-3.95,4.49"/></svg>